# xmcd CD database file
#
# Track frame offsets:
#	150
#	6442
#	29567
#	52532
#	69922
#	92860
#	111350
#	130790
#	147885
#	170005
#	191727
#	213240
#	234565
#	252067
#	274322
#	293427
#	312007
#	330480
#
# Disc length: 4484 seconds
#
# Revision: 0
# Processed by: cddbd v1.4PL0 Copyright (c) Steve Scherf et al.
# Submitted via: CDex 1.50beta9
#
DISCID=fd118212
DTITLE=Shakatak - The Best of Jazz Connections Vol.2 CD2
DYEAR=2001
DGENRE=Jazz
TTITLE0=Prelude
TTITLE1=Only Yesterday
TTITLE2=Island Girl
TTITLE3=Eyes Of The Sea
TTITLE4=This Boy Is Mine
TTITLE5=One Day, One Night
TTITLE6=Two People (One Love Story)
TTITLE7=Run With The Tide
TTITLE8=After Midnight
TTITLE9=Catch Me If You Can
TTITLE10=Please Don't Go
TTITLE11=Endurance
TTITLE12=Runnin' Away
TTITLE13=Nocturne
TTITLE14=Coco Kasu
TTITLE15=Deadline
TTITLE16=Marie-Louise
TTITLE17=Undercurrent
EXTD=YEAR: 2001
EXTT0=
EXTT1=
EXTT2=
EXTT3=
EXTT4=
EXTT5=
EXTT6=
EXTT7=
EXTT8=
EXTT9=
EXTT10=
EXTT11=
EXTT12=
EXTT13=
EXTT14=
EXTT15=
EXTT16=
EXTT17=
PLAYORDER=
